<?xml version="1.0" encoding="UTF-8"?>
<svg id="Calque_1" xmlns="http://www.w3.org/2000/svg" version="1.1" xmlns:xlink="http://www.w3.org/1999/xlink" viewBox="0 0 446 117">
  <!-- Generator: Adobe Illustrator 29.8.1, SVG Export Plug-In . SVG Version: 2.1.1 Build 2)  -->
  <defs>
    <style>
      .st0 {
        fill: url(#Dégradé_sans_nom_92);
      }

      .st1 {
        fill: url(#Dégradé_sans_nom_97);
      }

      .st2 {
        stroke: #fff;
      }

      .st2, .st3 {
        fill: #fff;
      }

      .st2, .st4 {
        stroke-miterlimit: 10;
      }

      .st5 {
        fill: url(#Dégradé_sans_nom_93);
      }

      .st6 {
        fill: url(#Dégradé_sans_nom_94);
      }

      .st7 {
        fill: url(#Dégradé_sans_nom_9);
      }

      .st4 {
        fill: none;
        stroke: #6bdb84;
        stroke-width: 26.66px;
      }

      .st8 {
        fill: url(#Dégradé_sans_nom_91);
      }

      .st9 {
        fill: url(#Dégradé_sans_nom_96);
      }

      .st10 {
        fill: url(#Dégradé_sans_nom_95);
      }
    </style>
    <linearGradient id="Dégradé_sans_nom_9" data-name="Dégradé sans nom 9" x1="-11.1" y1="74.95" x2="57.87" y2="16.84" gradientUnits="userSpaceOnUse">
      <stop offset="0" stop-color="#37e2ad"/>
      <stop offset="1" stop-color="#29abe2"/>
    </linearGradient>
    <linearGradient id="Dégradé_sans_nom_91" data-name="Dégradé sans nom 9" x1="3.79" y1="92.62" x2="72.76" y2="34.51" xlink:href="#Dégradé_sans_nom_9"/>
    <linearGradient id="Dégradé_sans_nom_92" data-name="Dégradé sans nom 9" x1="3.25" y1="91.98" x2="72.22" y2="33.87" xlink:href="#Dégradé_sans_nom_9"/>
    <linearGradient id="Dégradé_sans_nom_93" data-name="Dégradé sans nom 9" x1="1850.85" y1="712.56" x2="2071.83" y2="526.37" xlink:href="#Dégradé_sans_nom_9"/>
    <linearGradient id="Dégradé_sans_nom_94" data-name="Dégradé sans nom 9" x1="1898.57" y1="769.19" x2="2119.54" y2="583" xlink:href="#Dégradé_sans_nom_9"/>
    <linearGradient id="Dégradé_sans_nom_95" data-name="Dégradé sans nom 9" x1="1896.83" y1="767.13" x2="2117.8" y2="580.94" xlink:href="#Dégradé_sans_nom_9"/>
    <linearGradient id="Dégradé_sans_nom_96" data-name="Dégradé sans nom 9" x1="4.39" y1="88.24" x2="60.63" y2="20.2" xlink:href="#Dégradé_sans_nom_9"/>
    <linearGradient id="Dégradé_sans_nom_97" data-name="Dégradé sans nom 9" x1="-18.61" y1="88.24" x2="37.63" y2="20.2" xlink:href="#Dégradé_sans_nom_9"/>
  </defs>
  <g>
    <path class="st4" d="M78.83,54.96"/>
    <path class="st3" d="M85.02,96.27c-2.7,0-4.05-1.37-4.05-4.1V29.21c0-2.73,1.35-4.1,4.05-4.1s4.1,1.37,4.1,4.1v38.41l24.24-20.85c2.09-1.75,4.01-1.62,5.77.4,1.75,2.09,1.62,4.02-.4,5.77l-18.47,15.94,17.92,20.4c1.82,2.09,1.72,4-.3,5.72-2.06,1.79-4,1.65-5.82-.4l-18.02-20.35-4.91,4.2v13.72c0,2.73-1.37,4.1-4.1,4.1Z"/>
    <path class="st3" d="M129.73,74.15v2.53c0,4.42.81,7.43,2.43,9.03,1.62,1.6,4.66,2.4,9.11,2.4h8.3c3.51,0,6.11-.35,7.79-1.04,1.69-.69,2.78-1.91,3.29-3.67.37-1.21.87-2.15,1.49-2.81.62-.66,1.59-.99,2.91-.99s2.38.36,3.09,1.09c.71.73.94,1.76.71,3.11-.71,4.18-2.67,7.31-5.9,9.36-3.22,2.06-7.68,3.09-13.39,3.09h-8.3c-6.68,0-11.63-1.6-14.85-4.81-3.22-3.2-4.83-8.13-4.83-14.78v-11.69c0-6.81,1.61-11.82,4.83-15.01,3.22-3.19,8.17-4.75,14.85-4.68h8.3c6.68,0,11.62,1.59,14.83,4.78,3.21,3.19,4.81,8.16,4.81,14.9v5.06c0,2.73-1.35,4.1-4.05,4.1h-35.43ZM141.26,53.51c-4.45-.07-7.49.71-9.11,2.33s-2.43,4.67-2.43,9.16v.96h31.33v-.96c0-4.45-.8-7.48-2.4-9.08-1.6-1.6-4.63-2.4-9.08-2.4h-8.3Z"/>
    <path class="st3" d="M194.94,96.27c-6.68,0-11.63-1.61-14.85-4.83-3.22-3.22-4.83-8.17-4.83-14.85v-11.59c0-6.71,1.61-11.67,4.83-14.88,3.22-3.2,8.17-4.81,14.85-4.81h19.79v-15.95c0-2.73,1.37-4.1,4.1-4.1s4.05,1.37,4.05,4.1v62.82c0,2.73-1.35,4.1-4.05,4.1s-4.1-1.37-4.1-4.1v-1.06c-1.59,1.69-3.67,2.97-6.25,3.85-2.58.88-5.81,1.32-9.69,1.32h-3.85ZM194.94,88.12h3.85c4.52,0,8.31-.61,11.36-1.82,3.05-1.21,4.58-3.05,4.58-5.52v-27.28h-19.79c-4.45,0-7.49.82-9.11,2.45-1.62,1.64-2.43,4.65-2.43,9.03v11.59c0,4.45.82,7.49,2.45,9.11,1.64,1.62,4.66,2.43,9.08,2.43Z"/>
    <path class="st3" d="M232.53,37.5c-3.1,0-4.66-1.57-4.66-4.71v-2.88c0-3.1,1.55-4.66,4.66-4.66h2.88c2.97,0,4.45,1.55,4.45,4.66v2.88c0,3.14-1.49,4.71-4.45,4.71h-2.88ZM233.95,96.27c-2.73,0-4.1-1.37-4.1-4.1v-42.77c0-2.73,1.37-4.1,4.1-4.1s4.05,1.37,4.05,4.1v42.77c0,2.73-1.35,4.1-4.05,4.1Z"/>
    <path class="st2" d="M264.43,96.27c-6.68,0-11.63-1.6-14.85-4.81-3.22-3.2-4.83-8.13-4.83-14.78v-11.69c0-6.75,1.61-11.72,4.83-14.9,3.22-3.19,8.17-4.78,14.85-4.78h8.3c6.68,0,11.62,1.6,14.83,4.81,3.21,3.21,4.81,8.17,4.81,14.88v11.59c0,6.68-1.6,11.63-4.81,14.85-3.21,3.22-8.15,4.83-14.83,4.83h-8.3ZM252.89,76.69c0,4.42.81,7.43,2.43,9.03,1.62,1.6,4.66,2.4,9.11,2.4h8.3c4.45,0,7.48-.81,9.08-2.43,1.6-1.62,2.4-4.66,2.4-9.11v-11.59c0-4.45-.8-7.48-2.4-9.08-1.6-1.6-4.63-2.4-9.08-2.4h-8.3c-2.97,0-5.29.34-6.96,1.01-1.67.68-2.85,1.84-3.54,3.49-.69,1.65-1.04,3.98-1.04,6.98v11.69Z"/>
    <path class="st3" d="M318.34,96.27c-6.68,0-11.63-1.6-14.85-4.81-3.22-3.2-4.83-8.13-4.83-14.78v-11.69c0-6.75,1.61-11.72,4.83-14.9,3.22-3.19,8.17-4.78,14.85-4.78h8.3c6.68,0,11.62,1.6,14.83,4.81,3.21,3.21,4.81,8.17,4.81,14.88v11.59c0,6.68-1.6,11.63-4.81,14.85-3.21,3.22-8.15,4.83-14.83,4.83h-8.3ZM306.8,76.69c0,4.42.81,7.43,2.43,9.03,1.62,1.6,4.66,2.4,9.11,2.4h8.3c4.45,0,7.48-.81,9.08-2.43,1.6-1.62,2.4-4.66,2.4-9.11v-11.59c0-4.45-.8-7.48-2.4-9.08-1.6-1.6-4.63-2.4-9.08-2.4h-8.3c-2.97,0-5.29.34-6.96,1.01-1.67.68-2.85,1.84-3.54,3.49-.69,1.65-1.04,3.98-1.04,6.98v11.69Z"/>
    <g>
      <rect class="st7" x="33.84" y="29.42" width="8.32" height="8.32"/>
      <path class="st8" d="M58.8,38.72c2.48,1.36,4.16,4,4.16,7.02v4.47c0,2.3,1.86,4.16,4.16,4.16h0c2.3,0,4.16-1.86,4.16-4.16v-4.47c0-7.68-5.33-14.13-12.48-15.87v8.85Z"/>
      <path class="st0" d="M62.76,62.12l-48.36-7.08h-.09c-.73-.1-1.28-.72-1.28-1.46v-7.83c0-3.03,1.68-5.66,4.16-7.02v-8.84c-7.16,1.73-12.48,8.18-12.48,15.87v7.83c0,4.9,3.66,9.06,8.51,9.7l48.36,7.08h.09c.73.1,1.28.72,1.28,1.46v7.83c0,4.42-3.59,8.01-8.01,8.01H21.05c-4.42,0-8.01-3.59-8.01-8.01v-4.47c0-2.3-1.86-4.16-4.16-4.16s-4.16,1.86-4.16,4.16v4.47c0,9.02,7.31,16.33,16.33,16.33h33.9c9.02,0,16.33-7.31,16.33-16.33v-7.83c0-4.9-3.66-9.06-8.51-9.7Z"/>
    </g>
  </g>
  <g>
    <path class="st4" d="M2138.98,648.54"/>
    <path class="st3" d="M2158.84,780.89c-8.65,0-12.97-4.38-12.97-13.13v-201.72c0-8.76,4.32-13.13,12.97-13.13s13.13,4.38,13.13,13.13v123.08l77.67-66.81c6.7-5.62,12.86-5.19,18.49,1.3,5.62,6.7,5.19,12.87-1.3,18.49l-59.19,51.08,57.4,65.35c5.84,6.7,5.51,12.81-.97,18.32-6.6,5.73-12.81,5.3-18.65-1.3l-57.73-65.19-15.73,13.46v43.94c0,8.76-4.38,13.13-13.13,13.13Z"/>
    <path class="st3" d="M2302.06,710.03v8.11c0,14.16,2.59,23.81,7.78,28.94,5.19,5.14,14.92,7.7,29.19,7.7h26.59c11.24,0,19.57-1.11,24.97-3.32,5.4-2.21,8.92-6.13,10.54-11.76,1.19-3.89,2.78-6.89,4.78-9,2-2.11,5.11-3.16,9.32-3.16s7.62,1.16,9.89,3.49c2.27,2.33,3.02,5.65,2.27,9.97-2.27,13.41-8.57,23.41-18.89,30-10.32,6.59-24.62,9.89-42.89,9.89h-26.59c-21.4,0-37.27-5.13-47.59-15.41-10.33-10.27-15.49-26.05-15.49-47.35v-37.46c0-21.83,5.16-37.86,15.49-48.08,10.32-10.22,26.19-15.21,47.59-15h26.59c21.4,0,37.24,5.11,47.51,15.32,10.27,10.22,15.41,26.14,15.41,47.75v16.22c0,8.76-4.32,13.13-12.97,13.13h-113.51ZM2339.04,643.87c-14.27-.22-24,2.27-29.19,7.46-5.19,5.19-7.78,14.97-7.78,29.35v3.08h100.37v-3.08c0-14.27-2.57-23.97-7.7-29.11-5.14-5.13-14.84-7.7-29.11-7.7h-26.59Z"/>
    <path class="st3" d="M2511.01,780.89c-21.4,0-37.27-5.16-47.59-15.49-10.33-10.32-15.49-26.19-15.49-47.59v-37.13c0-21.51,5.16-37.4,15.49-47.67,10.32-10.27,26.19-15.41,47.59-15.41h63.4v-51.11c0-8.76,4.38-13.13,13.13-13.13s12.97,4.38,12.97,13.13v201.26c0,8.76-4.32,13.13-12.97,13.13s-13.13-4.38-13.13-13.13v-3.41c-5.08,5.41-11.76,9.51-20.03,12.32-8.27,2.81-18.62,4.22-31.05,4.22h-12.32ZM2511.01,754.78h12.32c14.48,0,26.62-1.95,36.4-5.84,9.78-3.89,14.68-9.78,14.68-17.67v-87.4h-63.4c-14.27,0-24,2.62-29.19,7.86-5.19,5.24-7.78,14.89-7.78,28.94v37.13c0,14.27,2.62,24,7.86,29.19,5.24,5.19,14.94,7.78,29.11,7.78Z"/>
    <path class="st3" d="M2631.46,592.6c-9.95,0-14.92-5.03-14.92-15.08v-9.24c0-9.94,4.97-14.92,14.92-14.92h9.24c9.51,0,14.27,4.97,14.27,14.92v9.24c0,10.05-4.76,15.08-14.27,15.08h-9.24ZM2636,780.89c-8.76,0-13.13-4.38-13.13-13.13v-137.02c0-8.76,4.38-13.14,13.13-13.14s12.97,4.38,12.97,13.14v137.02c0,8.76-4.32,13.13-12.97,13.13Z"/>
    <path class="st3" d="M2733.66,780.89c-21.4,0-37.27-5.13-47.59-15.41-10.33-10.27-15.49-26.05-15.49-47.35v-37.46c0-21.62,5.16-37.54,15.49-47.75,10.32-10.22,26.19-15.32,47.59-15.32h26.59c21.4,0,37.24,5.14,47.51,15.41,10.27,10.27,15.41,26.16,15.41,47.67v37.13c0,21.4-5.14,37.27-15.41,47.59-10.27,10.33-26.11,15.49-47.51,15.49h-26.59ZM2696.69,718.13c0,14.16,2.59,23.81,7.78,28.94,5.19,5.14,14.92,7.7,29.19,7.7h26.59c14.27,0,23.97-2.59,29.11-7.78,5.13-5.19,7.7-14.92,7.7-29.19v-37.13c0-14.27-2.57-23.97-7.7-29.11-5.14-5.13-14.84-7.7-29.11-7.7h-26.59c-9.51,0-16.95,1.08-22.3,3.24-5.35,2.16-9.14,5.89-11.35,11.19-2.22,5.3-3.32,12.76-3.32,22.38v37.46Z"/>
    <path class="st3" d="M2906.38,780.89c-21.4,0-37.27-5.13-47.59-15.41-10.33-10.27-15.49-26.05-15.49-47.35v-37.46c0-21.62,5.16-37.54,15.49-47.75,10.32-10.22,26.19-15.32,47.59-15.32h26.59c21.4,0,37.24,5.14,47.51,15.41,10.27,10.27,15.41,26.16,15.41,47.67v37.13c0,21.4-5.14,37.27-15.41,47.59-10.27,10.33-26.11,15.49-47.51,15.49h-26.59ZM2869.41,718.13c0,14.16,2.59,23.81,7.78,28.94,5.19,5.14,14.92,7.7,29.19,7.7h26.59c14.27,0,23.97-2.59,29.11-7.78,5.13-5.19,7.7-14.92,7.7-29.19v-37.13c0-14.27-2.57-23.97-7.7-29.11-5.14-5.13-14.84-7.7-29.11-7.7h-26.59c-9.51,0-16.95,1.08-22.3,3.24-5.35,2.16-9.14,5.89-11.35,11.19-2.22,5.3-3.32,12.76-3.32,22.38v37.46Z"/>
    <g>
      <rect class="st5" x="1994.84" y="566.68" width="26.66" height="26.66"/>
      <path class="st6" d="M2074.81,596.51c7.94,4.37,13.33,12.81,13.33,22.5v14.32c0,7.36,5.97,13.33,13.33,13.33h0c7.36,0,13.33-5.97,13.33-13.33v-14.32c0-24.6-17.07-45.28-39.99-50.84v28.34Z"/>
      <path class="st10" d="M2087.52,671.46l-154.95-22.7-.28-.04c-2.33-.29-4.09-2.28-4.09-4.63v-25.09c0-9.7,5.39-18.14,13.33-22.51v-28.34c-22.94,5.55-39.98,26.2-39.98,50.84v25.09c0,15.71,11.72,29.04,27.28,31.06l154.95,22.7.28.04c2.33.29,4.09,2.28,4.09,4.63v25.09c0,14.17-11.49,25.66-25.66,25.66h-108.62c-14.17,0-25.66-11.49-25.66-25.66v-14.32c0-7.36-5.97-13.33-13.33-13.33s-13.33,5.97-13.33,13.33v14.32c0,28.89,23.42,52.32,52.32,52.32h108.62c28.89,0,52.32-23.42,52.32-52.32v-25.09c0-15.71-11.72-29.04-27.28-31.06Z"/>
    </g>
  </g>
  <rect class="st9" x="46.9" y="20.73" width="7.64" height="22.93" rx="3.82" ry="3.82"/>
  <rect class="st1" x="23.9" y="20.73" width="7.64" height="22.93" rx="3.82" ry="3.82"/>
</svg>